<svg xmlns="http://www.w3.org/2000/svg" xmlns:xlink="http://www.w3.org/1999/xlink" xmlns:serif="http://www.serif.com/" viewBox="0 0 533 430" version="1.1" xml:space="preserve" style="" x="0px" y="0px" fill-rule="evenodd" clip-rule="evenodd" stroke-linejoin="round" stroke-miterlimit="2"><g transform="matrix(1,0,0,1,-10736,-4813)"><path d="M11210.5,5029.14L11210.5,5090.53L11140,5156.36L10875,5156.36C10875,5156.36 10871.7,5147.11 10867.7,5135.54C10858.3,5108.59 10832.9,5090.53 10804.4,5090.53L10804.4,5090.53L10804.4,4932.84L10804.4,4932.84C10833,4932.84 10858.7,4915.01 10868.6,4888.15C10872.2,4878.44 10875,4871.01 10875,4871.01L11077,4871.01C11077,4871.01 11077,4871.01 11077,4871.01C11090.8,4908.17 11126.2,4932.84 11165.8,4932.84L11210.5,4932.84L11210.5,4994.22L11233.4,4994.22L11233.4,4943.44C11233.4,4937.58 11238.2,4932.84 11244,4932.84L11257.7,4932.84C11263.6,4932.84 11268.3,4937.58 11268.3,4943.44C11268.3,4972.16 11268.3,5051.21 11268.3,5079.93C11268.3,5085.78 11263.6,5090.53 11257.7,5090.53C11253.4,5090.53 11248.4,5090.53 11244,5090.53C11238.2,5090.53 11233.4,5085.78 11233.4,5079.93L11233.4,5029.14L11210.5,5029.14ZM10781.5,4943.44C10781.5,4937.58 10776.8,4932.84 10770.9,4932.84C10763.8,4932.84 10754.5,4932.84 10747.5,4932.84C10741.6,4932.84 10736.9,4937.58 10736.9,4943.44C10736.9,4972.16 10736.9,5051.21 10736.9,5079.93C10736.9,5085.78 10741.6,5090.53 10747.5,5090.53C10754.5,5090.53 10763.8,5090.53 10770.9,5090.53C10776.8,5090.53 10781.5,5085.78 10781.5,5079.93C10781.5,5051.21 10781.5,4972.16 10781.5,4943.44ZM11077,4823.8C11077,4817.94 11072.3,4813.2 11066.4,4813.2C11031.5,4813.2 10920.5,4813.2 10885.6,4813.2C10879.7,4813.2 10875,4817.94 10875,4823.8C10875,4828.15 10875,4833.17 10875,4837.51C10875,4843.37 10879.7,4848.12 10885.6,4848.12C10920.5,4848.12 11031.5,4848.12 11066.4,4848.12C11072.3,4848.12 11077,4843.37 11077,4837.51C11077,4833.17 11077,4828.15 11077,4823.8Z"/></g></svg>